 <svg class="w-20 h-20" fill="currentColor" viewBox="0 0 24 24">
    <path
        d="M12 .5C5.65.5.5 5.85.5 12.3c0 5.2 3.44 9.6 8.2 11.16.6.1.82-.26.82-.58v-2.06c-3.34.74-4.04-1.62-4.04-1.62-.54-1.38-1.32-1.74-1.32-1.74-1.1-.8.08-.78.08-.78 1.2.1 1.84 1.26 1.84 1.26 1.1 1.92 2.88 1.36 3.6 1.04.1-.82.44-1.36.8-1.68-2.66-.3-5.46-1.38-5.46-6.16 0-1.36.48-2.48 1.26-3.34-.12-.3-.54-1.54.12-3.2 0 0 1-.32 3.34 1.26a11.2 11.2 0 013.04-.4c1.04 0 2.1.14 3.04.4 2.34-1.58 3.34-1.26 3.34-1.26.66 1.66.24 2.9.12 3.2.8.86 1.26 1.98 1.26 3.34 0 4.8-2.8 5.86-5.48 6.16.46.4.86 1.18.86 2.4v3.58c0 .32.22.68.82.58 4.76-1.56 8.2-5.96 8.2-11.16C23.5 5.85 18.35.5 12 .5z"
    ></path>
</svg>