 <svg class="w-6 h-6" fill="currentColor" viewBox="0 0 24 24">
    <path
        d="M19 0h-14C2.238 0 0 2.238 0 5v14c0 2.762 2.238 5 5 5h14c2.762
        0 5-2.238 5-5V5c0-2.762-2.238-5-5-5zm-11.75 20H4v-11h3.25v11zm-1.625-12.256c-1.03
        0-1.866-.837-1.866-1.867 0-1.03.837-1.867 1.866-1.867s1.866.837
        1.866 1.867c0 1.03-.837 1.867-1.866 1.867zM20 20h-3.25v-5.6c0-1.335
        -.024-3.053-1.86-3.053-1.863 0-2.15 1.454-2.15 2.953V20H9.5v-11h3.125v1.5h.045c.434-.82
        1.495-1.683 3.075-1.683 3.29 0 3.9 2.166 3.9 4.983V20z"
    ></path>
</svg>